<svg width="75" height="75" viewBox="0 0 75 75" fill="none" xmlns="http://www.w3.org/2000/svg">
<g id="svgviewer-output 1">
<path id="Vector" d="M1.85494 36.4965C2.29619 24.7982 8.22469 14.0087 19.0624 6.87899C19.0944 6.89099 19.3752 6.78874 19.2469 7.03149C18.3884 7.82749 2.95394 26.06 17.1609 40.4515C17.1609 40.4515 24.6254 47.6275 30.4137 40.8185C30.4137 40.8185 36.1254 33.4242 30.3414 22.2152C30.3414 22.2152 28.8774 18.5552 23.6027 16.285L27.8507 11.598C27.8507 11.598 31.4404 13.1382 34.2202 17.3157C34.2202 17.3157 34.3684 12.9175 30.9992 8.23074L37.5854 0.75824L44.1054 8.16049C44.1054 8.16049 41.1072 12.4082 40.8864 17.386C40.8864 17.386 42.9342 14.0167 47.3304 11.5982L51.5019 16.2852C51.5019 16.2852 47.4907 17.607 44.8034 22.1675C42.4929 26.393 40.7142 35.43 44.9074 40.9732C44.9074 40.9732 49.6004 47.6277 57.8554 40.5805C57.8554 40.5805 73.0334 26.9807 56.2989 7.31849C56.2989 7.31849 55.3844 6.51024 56.4112 6.94949C63.8077 12.3345 72.6642 19.436 73.5787 37.1587C73.2177 58.6502 58.8257 73.9922 37.8102 73.9922C17.2334 73.992 1.23744 56.8207 1.85494 36.4965Z" fill="#BA0000"/>
</g>
</svg>
